<svg width="32" height="32" viewBox="0 0 32 32" fill="none" xmlns="http://www.w3.org/2000/svg">
<rect width="32" height="32" rx="16" fill="#009BE0"/>
<path fill-rule="evenodd" clip-rule="evenodd" d="M17.8768 9.12979C16.6624 8.85923 15.4086 9.0146 14.2787 9.56852C13.1513 10.1212 12.2075 11.0404 11.5515 12.1921C11.3157 12.6061 11.1201 13.0446 10.9663 13.5H9.5C9.08579 13.5 8.75 13.8358 8.75 14.25C8.75 14.6642 9.08579 15 9.5 15H10.6192C10.5738 15.3465 10.5508 15.6975 10.5508 16.05C10.5508 16.4025 10.5738 16.7535 10.6192 17.1H9.5C9.08579 17.1 8.75 17.4358 8.75 17.85C8.75 18.2642 9.08579 18.6 9.5 18.6H10.9663C11.1201 19.0554 11.3157 19.494 11.5515 19.9079C12.2075 21.0597 13.1513 21.9788 14.2787 22.5315C15.4086 23.0854 16.6624 23.2408 17.8768 22.9702C19.0894 22.7001 20.1886 22.0222 21.0445 21.0438C21.3172 20.7321 21.2856 20.2583 20.9738 19.9855C20.6621 19.7128 20.1882 19.7444 19.9155 20.0562C19.2524 20.8142 18.4269 21.3109 17.5506 21.5061C16.6761 21.701 15.7697 21.5919 14.939 21.1846C14.1059 20.7762 13.3759 20.0803 12.8549 19.1655C12.7512 18.9834 12.6568 18.7945 12.5723 18.6H16.7C17.1142 18.6 17.45 18.2642 17.45 17.85C17.45 17.4358 17.1142 17.1 16.7 17.1H12.1351C12.0794 16.7562 12.0508 16.4047 12.0508 16.05C12.0508 15.6953 12.0794 15.3438 12.1351 15H16.7C17.1142 15 17.45 14.6642 17.45 14.25C17.45 13.8358 17.1142 13.5 16.7 13.5H12.5723C12.6568 13.3055 12.7512 13.1167 12.8549 12.9345C13.3759 12.0198 14.1059 11.3238 14.939 10.9154C15.7697 10.5081 16.6761 10.3991 17.5506 10.5939C18.4269 10.7891 19.2524 11.2858 19.9155 12.0438C20.1882 12.3556 20.6621 12.3872 20.9738 12.1145C21.2856 11.8418 21.3172 11.3679 21.0445 11.0562C20.1886 10.0778 19.0894 9.39994 17.8768 9.12979Z" fill="white"/>
</svg>
