<svg width="20" height="20" viewBox="0 0 20 20" fill="none" xmlns="http://www.w3.org/2000/svg">
<path d="M10 19.84C11.9778 19.84 13.9112 19.2582 15.5557 18.1682C17.2002 17.0782 18.4819 15.5289 19.2388 13.7162C19.9957 11.9036 20.1937 9.909 19.8078 7.98471C19.422 6.06042 18.4696 4.29284 17.0711 2.9055C15.6725 1.51817 13.8907 0.57338 11.9509 0.190614C10.0111 -0.192151 8.00043 0.00429814 6.17316 0.755119C4.3459 1.50594 2.78412 2.77741 1.6853 4.40875C0.586489 6.04008 0 7.95801 0 9.92C0 12.5509 1.05357 15.0741 2.92893 16.9345C4.8043 18.7949 7.34783 19.84 10 19.84ZM3.71034 14.709L8.96552 11.6988V17.7192C6.88079 17.4465 4.99054 16.3638 3.71034 14.709ZM11.0345 17.7192V11.6988L16.2897 14.709C15.0095 16.3638 13.1192 17.4465 11.0345 17.7192ZM17.3276 12.9302L12.069 9.92L17.3276 6.9098C18.1322 8.83723 18.1322 11.0028 17.3276 12.9302ZM16.2931 5.13104L11.0345 8.14124V2.12083C13.1192 2.39348 15.0095 3.47623 16.2897 5.13104H16.2931ZM8.96552 2.12083V8.14124L3.71034 5.13104C4.99054 3.47623 6.88079 2.39348 8.96552 2.12083ZM2.67241 6.9098L7.93103 9.92L2.67241 12.9302C1.86779 11.0028 1.86779 8.83723 2.67241 6.9098Z" fill="black"/>
</svg>
