<svg width="32" height="32" viewBox="0 0 32 32" fill="none" xmlns="http://www.w3.org/2000/svg">
<rect width="32" height="32" rx="16" fill="#009BE0"/>
<path d="M22.5 15.9C22.5 14.6144 22.1188 13.3577 21.4046 12.2888C20.6903 11.2199 19.6752 10.3868 18.4874 9.89481C17.2997 9.40284 15.9928 9.27412 14.7319 9.52492C13.471 9.77572 12.3128 10.3948 11.4038 11.3038C10.4948 12.2129 9.8757 13.3711 9.6249 14.6319C9.37409 15.8928 9.50281 17.1997 9.99478 18.3875C10.4868 19.5752 11.3199 20.5903 12.3888 21.3046C13.4577 22.0188 14.7144 22.4 16 22.4L22 22.4L9.99478 22.4" stroke="white" stroke-width="1.5" stroke-linecap="round"/>
<path d="M14.5 7.40002L14.5 14.4" stroke="white" stroke-width="1.5" stroke-linecap="round"/>
<path d="M17.5 7.40002L17.5 14.4" stroke="white" stroke-width="1.5" stroke-linecap="round"/>
</svg>
