<svg width="32" height="32" viewBox="0 0 32 32" fill="none" xmlns="http://www.w3.org/2000/svg">
<rect width="32" height="32" rx="16" fill="#009BE0"/>
<path fill-rule="evenodd" clip-rule="evenodd" d="M16.5757 7.75C16.5757 7.33579 16.2399 7 15.8257 7C15.4115 7 15.0757 7.33579 15.0757 7.75V9.72954C15.046 9.73113 15.0162 9.73289 14.9866 9.7348C14.1739 9.78727 13.3407 9.96439 12.6656 10.3849C11.9578 10.8257 11.4572 11.5168 11.3432 12.4765C11.2513 13.2504 11.3372 13.9269 11.6058 14.5067C11.8753 15.0885 12.301 15.5129 12.7881 15.8265C13.719 16.4258 14.9695 16.6714 16.0121 16.876L16.1059 16.8944C16.6186 16.9949 17.0926 17.0879 17.525 17.2047C17.9851 17.3291 18.347 17.4679 18.6133 17.6356C18.8687 17.7965 19.0122 17.9681 19.0863 18.1653C19.1631 18.3696 19.1986 18.69 19.0728 19.2039C18.9714 19.6179 18.6879 19.9363 18.1828 20.1753C17.6612 20.4222 16.9535 20.5551 16.1532 20.5804C14.5343 20.6316 12.8277 20.2386 12.0998 19.855C11.7334 19.6618 11.2798 19.8024 11.0866 20.1688C10.8935 20.5352 11.034 20.9888 11.4005 21.182C12.2086 21.6078 13.6246 21.9595 15.0757 22.0576V24.0519C15.0757 24.4661 15.4115 24.8019 15.8257 24.8019C16.2399 24.8019 16.5757 24.4661 16.5757 24.0519V22.0607C17.364 22.0053 18.1527 21.8492 18.8246 21.5311C19.6198 21.1547 20.2933 20.5263 20.5298 19.5606C20.704 18.8491 20.7036 18.2046 20.4904 17.6375C20.2745 17.0632 19.8739 16.6568 19.4128 16.3664C18.9626 16.0829 18.4357 15.8971 17.9164 15.7567C17.4308 15.6254 16.9071 15.5229 16.4089 15.4252L16.301 15.4041C15.1859 15.1852 14.2434 14.9795 13.6001 14.5653C13.3001 14.3721 13.0933 14.1491 12.9669 13.8762C12.8395 13.6013 12.7659 13.2157 12.8327 12.6534C12.8895 12.1757 13.1112 11.8745 13.4587 11.6581C13.8388 11.4213 14.3938 11.2762 15.0832 11.2317C16.4601 11.1428 18.0899 11.4713 19.1118 11.8149C19.5044 11.947 19.9297 11.7358 20.0617 11.3432C20.1938 10.9506 19.9826 10.5253 19.59 10.3932C18.8099 10.1308 17.7114 9.87158 16.5757 9.76621V7.75Z" fill="white"/>
</svg>
